<?xml version="1.0" encoding="UTF-8" standalone="no"?>
<!-- Created with Inkscape (http://www.inkscape.org/) -->

<svg
   xmlns:dc="http://purl.org/dc/elements/1.1/"
   xmlns:cc="http://creativecommons.org/ns#"
   xmlns:rdf="http://www.w3.org/1999/02/22-rdf-syntax-ns#"
   xmlns:svg="http://www.w3.org/2000/svg"
   xmlns="http://www.w3.org/2000/svg"
   xmlns:sodipodi="http://sodipodi.sourceforge.net/DTD/sodipodi-0.dtd"
   xmlns:inkscape="http://www.inkscape.org/namespaces/inkscape"
   width="2000"
   height="2000"
   viewBox="0 0 2000 2000"
   id="svg2"
   version="1.1"
   inkscape:version="0.91 r13725"
   sodipodi:docname="Jott.svg">
  <defs
     id="defs4" />
  <sodipodi:namedview
     id="base"
     pagecolor="#ffffff"
     bordercolor="#666666"
     borderopacity="1.0"
     inkscape:pageopacity="0.0"
     inkscape:pageshadow="2"
     inkscape:zoom="0.35"
     inkscape:cx="355.37931"
     inkscape:cy="988.0166"
     inkscape:document-units="px"
     inkscape:current-layer="layer1"
     showgrid="false"
     units="px"
     inkscape:window-width="1920"
     inkscape:window-height="1017"
     inkscape:window-x="-8"
     inkscape:window-y="-8"
     inkscape:window-maximized="1" />
  <metadata
     id="metadata7">
    <rdf:RDF>
      <cc:Work
         rdf:about="">
        <dc:format>image/svg+xml</dc:format>
        <dc:type
           rdf:resource="http://purl.org/dc/dcmitype/StillImage" />
        <dc:title></dc:title>
      </cc:Work>
    </rdf:RDF>
  </metadata>
  <g
     inkscape:label="Layer 1"
     inkscape:groupmode="layer"
     id="layer1"
     transform="translate(0,947.63781)">
    <g
       id="Logo"
       inkscape:label="#g4153">
      <rect
         y="540.36218"
         x="4.9999999e-006"
         height="512"
         width="512"
         id="rect4136"
         style="fill:#333333;fill-opacity:1;stroke:#d0d0d0;stroke-width:0;stroke-linejoin:round;stroke-miterlimit:4;stroke-dasharray:none;stroke-opacity:1" />
      <path
         sodipodi:nodetypes="cccccccccccccc"
         inkscape:connector-curvature="0"
         id="rect4140"
         d="m 426.88237,582.51798 -19.13567,31.41487 46.07639,27.98 19.13567,-31.41488 z m -37.23032,61.12072 -167.33884,274.71878 46.07639,27.98 167.33885,-274.71878 z m -169.62737,283.84415 -6.26312,54.41845 47.56907,-29.57726 z"
         style="fill:#ffffff;fill-opacity:1;stroke:#ffffff;stroke-width:10;stroke-linecap:square;stroke-linejoin:miter;stroke-miterlimit:4;stroke-dasharray:none;stroke-opacity:1" />
      <path
         inkscape:connector-curvature="0"
         d="m 210.29892,989.10277 c -12.57834,12.93363 -26.96446,18.50473 -44.20113,28.09653 -2.95737,1.6457 -9.09708,3.2484 -12.34554,3.6957 -2.3013,0.3168 -4.63876,0.2598 -6.95814,0.3897 -7.5715,-0.7407 -7.31166,-0.426 -14.86087,-2.3778 -2.51062,-0.6491 -5.05556,-1.24 -7.45488,-2.2238 -4.62481,-1.8963 -12.60453,-6.6315 -16.50119,-9.5523 -2.82631,-2.1185 -5.35767,-4.6043 -8.036502,-6.9065 -6.57687,-7.38774 -8.8678,-9.31708 -14.12695,-17.90714 -2.24718,-3.67046 -4.15458,-7.54013 -6.10885,-11.37457 -5.51516,-10.82114 -10.24841,-22.01974 -15.19362,-33.10574 -5.24227,-10.85352 -9.51611,-22.48055 -17.08415,-32.02901 -0.85548,-1.07935 -1.8395,-2.05026 -2.75926,-3.07539 -2.02723,-2.05489 -4.39124,-3.4267 -6.98351,-4.59684 0,0 32.82984,-21.36937 32.82984,-21.36937 l 0,0 c 2.67113,1.78554 5.15549,3.68 7.0768,6.31767 0.84537,1.21089 1.74773,2.38392 2.53611,3.63267 6.64784,10.52983 10.61287,22.41326 14.94465,33.99929 8.584042,22.19824 17.215352,43.96537 34.857222,60.7346 2.66838,2.10866 5.19252,4.41396 8.00516,6.32597 9.27326,6.3039 20.43411,10.27205 31.60687,11.26449 2.34225,0.20805 4.70191,0.0984 7.05287,0.14763 6.26427,-0.88092 7.07367,-0.62492 12.99043,-2.91954 1.97212,-0.76482 7.5392,-3.81606 5.74343,-2.69828 -61.40109,38.21926 -30.82949,19.50946 -23.67201,13.29106 0.90597,-0.7871 1.70711,-1.6873 2.56067,-2.5309 0,0 36.08255,-15.22813 36.08255,-15.22813 z"
         id="path4285"
         style="fill:#ffffff;fill-opacity:1;stroke:none;stroke-width:3.20000005;stroke-linecap:square;stroke-linejoin:miter;stroke-miterlimit:4;stroke-dasharray:none;stroke-opacity:1" />
    </g>
    <g
       id="LogoWide"
       inkscape:label="#g4146">
      <rect
         y="-59.637814"
         x="6.0665143e-006"
         height="512"
         width="1058"
         id="rect4136-1"
         style="fill:#333333;fill-opacity:1;stroke:#d0d0d0;stroke-width:0;stroke-linejoin:round;stroke-miterlimit:4;stroke-dasharray:none;stroke-opacity:1" />
      <path
         sodipodi:nodetypes="cccccccccccccc"
         inkscape:connector-curvature="0"
         id="rect4140-7"
         d="m 464.88239,-18.282097 -19.13567,31.4149 46.07639,27.98 19.13567,-31.4148996 z m -37.23032,61.1207 -167.33884,274.718797 46.07639,27.98 L 473.72847,70.818603 Z M 258.0247,326.6828 l -6.26312,54.4184 47.56907,-29.5772 z"
         style="fill:#ffffff;fill-opacity:1;stroke:#ffffff;stroke-width:10;stroke-linecap:square;stroke-linejoin:miter;stroke-miterlimit:4;stroke-dasharray:none;stroke-opacity:1" />
      <path
         inkscape:connector-curvature="0"
         d="m 248.29894,388.3027 c -12.57834,12.9336 -26.96446,18.5047 -44.20113,28.0965 -2.95737,1.6457 -9.09708,3.2484 -12.34554,3.6957 -2.3013,0.3168 -4.63876,0.2598 -6.95814,0.3897 -7.5715,-0.7407 -7.31166,-0.426 -14.86087,-2.3778 -2.51062,-0.6491 -5.05556,-1.24 -7.45488,-2.2238 -4.62481,-1.8963 -12.60453,-6.6315 -16.50119,-9.5523 -2.82631,-2.1185 -5.35767,-4.6043 -8.03651,-6.9065 -6.57687,-7.3877 -8.8678,-9.317 -14.12695,-17.9071 -2.24718,-3.6705 -4.15458,-7.5401 -6.10885,-11.3746 -5.51516,-10.8211 -10.24841,-22.0197 -15.19362,-33.1057 -5.242273,-10.8535 -9.516113,-22.4806 -17.084153,-32.029 -0.85548,-1.0794 -1.8395,-2.0503 -2.75926,-3.0754 -2.02723,-2.0549 -4.39124,-3.4267 -6.98351,-4.5968 0,0 32.829843,-21.3694 32.829843,-21.3694 l 0,0 c 2.67113,1.7855 5.15549,3.68 7.0768,6.3177 0.84537,1.2108 1.74773,2.3839 2.53611,3.6326 6.64784,10.5299 10.61287,22.4133 14.94465,33.9993 8.58405,22.1983 17.21536,43.9654 34.85723,60.7346 2.66838,2.1087 5.19252,4.414 8.00516,6.326 9.27326,6.3039 20.43411,10.272 31.60687,11.2645 2.34225,0.208 4.70191,0.098 7.05287,0.1476 6.26427,-0.8809 7.07367,-0.6249 12.99043,-2.9195 1.97212,-0.7649 7.5392,-3.8161 5.74343,-2.6983 -61.40109,38.2192 -30.82949,19.5094 -23.67201,13.291 0.90597,-0.7871 1.70711,-1.6873 2.56067,-2.5309 0,0 36.08255,-15.2281 36.08255,-15.2281 z"
         id="path4285-2"
         style="fill:#ffffff;fill-opacity:1;stroke:none;stroke-width:3.20000005;stroke-linecap:square;stroke-linejoin:miter;stroke-miterlimit:4;stroke-dasharray:none;stroke-opacity:1" />
      <text
         sodipodi:linespacing="125%"
         id="text4145"
         y="406.64798"
         x="379.42856"
         style="font-style:normal;font-weight:normal;font-size:40px;line-height:125%;font-family:sans-serif;letter-spacing:0px;word-spacing:0px;fill:#000000;fill-opacity:1;stroke:none;stroke-width:1px;stroke-linecap:butt;stroke-linejoin:miter;stroke-opacity:1"
         xml:space="preserve"><tspan
           style="font-style:normal;font-variant:normal;font-weight:normal;font-stretch:normal;font-size:562.5px;font-family:'Alex Brush';-inkscape-font-specification:'Alex Brush';fill:#ffffff"
           y="406.64798"
           x="379.42856"
           id="tspan4147"
           sodipodi:role="line">ott.</tspan></text>
    </g>
  </g>
</svg>
